<svg xmlns="http://www.w3.org/2000/svg" width="26" height="25" fill="none"><path stroke="#292D32" stroke-linecap="round" stroke-linejoin="round" stroke-miterlimit="10" stroke-width=".961" d="M1 .862h2.138C4.466.862 5.51 1.944 5.4 3.188L4.38 14.774C4.208 16.671 5.793 18.3 7.809 18.3h13.088c1.77 0 3.318-1.372 3.454-3.036l.663-8.725c.148-1.93-1.4-3.501-3.453-3.501H5.695M18.513 24.127c.848 0 1.536-.65 1.536-1.454 0-.803-.688-1.454-1.536-1.454-.849 0-1.536.651-1.536 1.454 0 .803.687 1.454 1.536 1.454ZM8.681 24.127c.849 0 1.536-.65 1.536-1.454 0-.803-.687-1.454-1.536-1.454-.848 0-1.536.651-1.536 1.454 0 .803.688 1.454 1.536 1.454ZM9.603 7.841H24.35"/></svg>