<svg xmlns="http://www.w3.org/2000/svg" width="65" height="65" fill="none"><path fill="#292D32" d="M35.523 40.814H2.267A2.284 2.284 0 0 1 0 38.547V14.36C0 6.44 6.44 0 14.36 0h27.21a2.284 2.284 0 0 1 2.267 2.267V32.5a8.31 8.31 0 0 1-8.314 8.314ZM4.535 36.279h30.988a3.78 3.78 0 0 0 3.78-3.779V4.535H14.36c-5.412 0-9.826 4.414-9.826 9.825v21.92Z"/><path fill="#292D32" d="M53.663 58.953H50.64a2.284 2.284 0 0 1-2.268-2.267 3.78 3.78 0 0 0-3.779-3.779 3.78 3.78 0 0 0-3.779 3.78 2.284 2.284 0 0 1-2.267 2.267H26.454a2.284 2.284 0 0 1-2.268-2.268 3.78 3.78 0 0 0-3.779-3.779 3.78 3.78 0 0 0-3.78 3.78 2.284 2.284 0 0 1-2.266 2.267h-3.024C5.08 58.953 0 53.873 0 47.615v-9.07a2.284 2.284 0 0 1 2.267-2.267h33.256a3.78 3.78 0 0 0 3.78-3.779V11.337A2.284 2.284 0 0 1 41.57 9.07h5.563a8.308 8.308 0 0 1 7.225 4.202l5.17 9.04a2.328 2.328 0 0 1 0 2.267c-.393.695-1.149 1.119-1.965 1.119h-3.9a.748.748 0 0 0-.756.755v9.07c0 .423.333.756.756.756h9.07A2.284 2.284 0 0 1 65 38.546v9.07c0 6.258-5.08 11.337-11.337 11.337Zm-1.058-4.534h1.058c3.749 0 6.802-3.054 6.802-6.803v-6.802h-6.802c-2.902 0-5.29-2.388-5.29-5.29v-9.07a5.296 5.296 0 0 1 5.29-5.291l-3.235-5.654a3.784 3.784 0 0 0-3.295-1.904h-3.296V32.5a8.31 8.31 0 0 1-8.314 8.314H4.535v6.802c0 3.75 3.053 6.803 6.802 6.803h1.058c.998-3.477 4.203-6.047 8.012-6.047 3.81 0 7.014 2.57 8.012 6.047h8.193c.997-3.477 4.202-6.047 8.011-6.047 3.81 0 6.984 2.57 7.982 6.047Z"/><path fill="#292D32" d="M20.407 65a8.31 8.31 0 0 1-8.314-8.314 8.31 8.31 0 0 1 8.314-8.314 8.31 8.31 0 0 1 8.314 8.314A8.31 8.31 0 0 1 20.407 65Zm0-12.093a3.78 3.78 0 0 0-3.78 3.779 3.78 3.78 0 0 0 3.78 3.78 3.78 3.78 0 0 0 3.779-3.78 3.78 3.78 0 0 0-3.779-3.779ZM44.593 65a8.31 8.31 0 0 1-8.314-8.314 8.31 8.31 0 0 1 8.314-8.314 8.31 8.31 0 0 1 8.314 8.314A8.31 8.31 0 0 1 44.593 65Zm0-12.093a3.78 3.78 0 0 0-3.78 3.779 3.78 3.78 0 0 0 3.78 3.78 3.78 3.78 0 0 0 3.78-3.78 3.78 3.78 0 0 0-3.78-3.779ZM62.733 40.814h-9.07c-2.903 0-5.29-2.388-5.29-5.29v-9.07c0-2.903 2.387-5.291 5.29-5.291h3.9c.816 0 1.572.423 1.965 1.149l5.17 9.07c.181.332.302.725.302 1.118v6.047a2.284 2.284 0 0 1-2.267 2.267Zm-9.07-15.116a.748.748 0 0 0-.756.755v9.07c0 .423.333.756.756.756h6.802v-3.174l-4.233-7.407h-2.57Z"/></svg>