<svg xmlns="http://www.w3.org/2000/svg" width="60" height="60" fill="none"><path fill="#292D32" d="M37.116 59.134a2.111 2.111 0 0 1-2.037-1.564c-.307-1.117.363-2.263 1.507-2.57 11.33-2.989 19.228-13.268 19.228-25C55.814 15.754 44.233 4.162 30 4.162c-12.084 0-20.01 7.067-23.72 11.34h8.204a2.11 2.11 0 0 1 2.093 2.096c0 1.145-.921 2.123-2.093 2.123H2.12c-.14 0-.39-.028-.586-.084a2.51 2.51 0 0 1-.67-.335 1.84 1.84 0 0 1-.586-.643A2.258 2.258 0 0 1 0 17.793V4.888a2.11 2.11 0 0 1 2.093-2.095 2.11 2.11 0 0 1 2.093 2.095v6.676C8.735 6.676 17.302 0 30 0c16.549 0 30 13.464 30 30.028 0 13.631-9.181 25.587-22.353 29.05a3.408 3.408 0 0 1-.53.056ZM28.019 60c-.056 0-.112-.028-.14-.028a29.351 29.351 0 0 1-8.763-1.955c-.809-.308-1.367-1.118-1.34-1.984a2.1 2.1 0 0 1 .14-.726c.419-1.061 1.675-1.592 2.707-1.2a26.096 26.096 0 0 0 7.535 1.703c1.088.056 1.954 1.006 1.954 2.123l-.028.112A2.078 2.078 0 0 1 28.019 60Zm-15.377-6.006c-.475 0-.921-.167-1.312-.447-2.344-1.899-4.41-4.106-6.083-6.564-.252-.363-.391-.754-.391-1.173 0-.698.335-1.34.92-1.732.922-.642 2.261-.39 2.903.503v.028c.028.028.056.084.084.112a25.72 25.72 0 0 0 5.19 5.53c.475.392.782.978.782 1.62 0 .475-.14.95-.447 1.341a2.117 2.117 0 0 1-1.646.782ZM3.32 40.364c-.921 0-1.73-.587-1.981-1.453A29.93 29.93 0 0 1 0 30.028V30c.028-1.145.949-2.067 2.093-2.067a2.11 2.11 0 0 1 2.093 2.095c0 2.626.39 5.196 1.144 7.626.056.223.084.419.084.642 0 .894-.586 1.704-1.48 1.983-.194.056-.39.084-.613.084Z"/></svg>