<svg xmlns="http://www.w3.org/2000/svg" width="22" height="22" fill="none"><path fill="#292D32" d="M10.488 20.717C4.707 20.717 0 16.262 0 10.79 0 5.317 4.707.862 10.488.862c5.782 0 10.489 4.455 10.489 9.927 0 5.473-4.707 9.928-10.489 9.928Zm0-18.402c-4.942 0-8.953 3.806-8.953 8.474 0 4.669 4.011 8.475 8.953 8.475 4.943 0 8.954-3.806 8.954-8.475 0-4.668-4.011-8.474-8.954-8.474ZM21.233 21.686a.781.781 0 0 1-.542-.213l-2.047-1.938a.703.703 0 0 1 0-1.026.803.803 0 0 1 1.085 0l2.046 1.937a.703.703 0 0 1 0 1.026.781.781 0 0 1-.542.214Z"/></svg>