<svg xmlns="http://www.w3.org/2000/svg" width="178" height="178" fill="none"><path fill="#000" d="M126.083 103.833c-1.78-1.78-3.263-3.708-4.82-5.562 8.529-12.98 19.654-34.784 19.654-61.188 0-14.462-5.489-22.25-14.834-22.25-11.421 0-29.37 15.279-37.083 44.278-7.713-29-25.662-44.278-37.083-44.278-9.345 0-14.834 7.788-14.834 22.25 0 26.404 11.125 48.209 19.654 61.188-1.557 1.854-3.04 3.782-4.82 5.562-1.855 1.855-14.834 10.31-14.834 25.959 0 18.541 14.834 33.375 33.375 33.375 11.125 0 18.542-3.709 18.542-3.709s7.417 3.709 18.542 3.709c18.541 0 33.375-14.834 33.375-33.375 0-15.649-12.979-24.104-14.834-25.959Zm-.89-73.944c.445 1.261.89 3.486.89 7.194 0 21.064-8.232 38.864-15.352 50.285-2.818-2.076-6.156-3.56-10.383-4.598 1.78-33.523 18.096-50.656 24.845-52.88Zm-73.276 7.194c0-3.708.445-5.933.89-7.194 6.749 2.225 23.066 19.358 25.068 52.881-4.45 1.038-7.787 2.522-10.532 4.598-7.194-11.421-15.426-29.221-15.426-50.285Zm55.625 111.25c-7.417 0-13.35-2.447-16.465-4.153 3.115-1.335 5.34-5.266 5.34-6.972 0-2.076-3.338-3.708-7.417-3.708-4.08 0-7.417 1.632-7.417 3.708 0 1.706 2.225 5.637 5.34 6.972-3.115 1.706-9.048 4.153-16.465 4.153-10.235 0-18.541-8.306-18.541-18.541 0-5.192 3.189-9.197 7.416-12.831 3.264-2.67 4.525-3.857 9.642-10.161C74.612 99.754 77.059 96.417 89 96.417c11.941 0 14.388 3.337 20.025 10.383 5.118 6.304 6.378 7.491 9.642 10.161 4.227 3.634 7.416 7.639 7.416 12.831 0 10.235-8.306 18.541-18.541 18.541Zm-3.709-29.666c0 3.041-1.631 5.562-3.708 5.562s-3.708-2.521-3.708-5.562c0-3.041 1.631-5.563 3.708-5.563s3.708 2.522 3.708 5.563Zm-22.25 0c0 3.041-1.631 5.562-3.708 5.562s-3.708-2.521-3.708-5.562c0-3.041 1.631-5.563 3.708-5.563s3.708 2.522 3.708 5.563Z"/></svg>